<svg xmlns="http://www.w3.org/2000/svg" viewBox="0 0 256 512" fill="none">
  <path fill="white" d="M127.56 0h.26c.06 88.31 33.7 161.23 65.51 206.48 33.95 48.32 62.98 64.58 62.98 103.18 0 44.35-54.68 100.64-115.24 147.69a4.02 4.02 0 01-4.59 0C67.68 410.31 12.96 354.02 12.96 309.66c0-38.59 29.03-54.86 62.98-103.18 31.81-45.25 65.45-118.17 65.62-206.48zM129.34 483.48c4.07-4.48-1.38-20.45-4.52-30.86-2.4-7.89-4.4-6.48-5.53-4.9-7.59 8.02-21.45 17.85-30.83 24.19-1.7 1.17-2.02 2.67-2.02 3.6 0 3.55 34.87 13.82 42.9 8.97z" />
</svg>
